# xmcd CD database file
# Copyright (C) 1993-1998 Ti Kan
#
# Track frame offsets:
# 180
# 26110
# 40843
# 57684
# 74133
# 90272
# 113716
# 133906
# 149228
# 165486
# 181003
# 198488
# 212667
# 231515
# 247995
# 261881
# 275990
# 289828
# 306553
#
# Disc length: 4269 seconds
# Revision: 0
# Processed by: cddbd v1.4b41PL1 Copyright (c) Steve Scherf et al.
# Submitted via: CDSpectrumPro v3.3.335
#
DISCID=3810ab13
DTITLE=C.C. Catch - Like A Hurricane Big Fun
DYEAR=1900
DGENRE=
TTITLE0=Good Guys Only Win In Moves
TTITLE1=Like A Hurricane
TTITLE2=Smoky Joe's Cafe
TTITLE3=Are You Man Enough
TTITLE4=Don't Be A Hero
TTITLE5=Soul Survivor
TTITLE6=Midnight Gambler
TTITLE7=Don't Wait Too Long
TTITLE8=Dancing In Shadows
TTITLE9=Backseat Of Your Cadillac
TTITLE10=Summer Kisses
TTITLE11=Are You Serious
TTITLE12=Night In Africa
TTITLE13=Heartbeat City
TTITLE14=Baby I Need Your Love
TTITLE15=Little By Little
TTITLE16=Nothing But A Heartache
TTITLE17=If I Feel Love
TTITLE18=Fire Of Love
EXTD=
EXTT0=
EXTT1=
EXTT2=
EXTT3=
EXTT4=
EXTT5=
EXTT6=
EXTT7=
EXTT8=
EXTT9=
EXTT10=
EXTT11=
EXTT12=
EXTT13=
EXTT14=
EXTT15=
EXTT16=
EXTT17=
EXTT18=
PLAYORDER=
